<svg width="488" height="424" viewBox="0 0 488 424" fill="none" xmlns="http://www.w3.org/2000/svg">
<g clip-path="url(#clip0_8_437)">
<path d="M312.65 338.608L317.34 348.586C313.528 348.01 309.983 351.099 309.904 355.067C309.824 359.034 313.224 363.162 317.036 363.726C316.307 366.806 313.163 368.164 310.434 369.409C307.705 370.654 304.764 372.719 304.967 376.001C305.13 378.637 307.427 380.963 309.865 381.899C312.304 382.834 314.863 382.691 317.333 382.534C313.59 386.249 313.225 393.233 316.512 398.243C319.799 403.253 326.363 405.72 331.278 403.791C327.805 407.891 328.56 415.398 332.87 419.629C337.214 423.894 343.511 424.307 349.015 423.858C363.033 422.733 376.39 417.71 387.414 409.417C391.622 406.243 395.552 402.511 397.953 397.643C400.354 392.775 401.061 386.612 398.825 381.072C399.428 388.012 406.747 393.493 413.331 393.8C419.916 394.106 425.665 390.587 430.55 386.573C437.047 381.236 443.062 373.754 442.17 364.523C441.729 359.953 439.625 355.558 437.562 351.301L433.563 343.047C431.949 339.715 430.297 336.327 427.867 333.531C425.437 330.735 422.064 328.57 418.689 328.591C419.461 325.245 420.236 321.774 419.589 318.219C418.942 314.663 416.466 310.982 413.097 310.15C408.811 309.09 405.178 312.844 400.868 312.49C396.719 312.15 393.291 308.199 389.263 306.634C387.605 305.953 385.773 305.746 383.993 306.038C382.212 306.331 380.56 307.109 379.239 308.279C376.685 310.645 375.621 314.642 376.537 318.423C377.34 321.736 379.476 324.658 380.773 327.853C382.069 331.048 382.271 335.156 379.78 336.901C376.776 339.007 372.202 336.142 369.854 332.675C367.507 329.209 366.159 325.012 363.19 322.097C359.686 318.656 354.202 317.85 350.594 320.245C346.987 322.64 345.607 328.004 347.426 332.563C348.913 336.291 352.319 340.063 351.138 343.573C349.889 347.284 344.425 346.814 341.13 344.192C337.834 341.569 335.646 337.62 332.39 334.939C329.084 332.216 324.766 331.023 320.976 331.785C319.053 332.208 317.274 333.084 315.802 334.332C314.33 335.58 313.213 337.16 312.555 338.926" fill="#E6E6E6"/>
<path d="M388.573 310.566L378.843 314.856C377.38 315.542 375.722 315.754 374.12 315.461C372.707 315.144 371.753 314.324 371.502 313.211L369.238 303.176C368.811 301.283 370.463 299.043 373.166 297.851L378.539 295.482C381.243 294.29 384.112 294.536 385.361 296.067L391.982 304.181C392.717 305.081 392.761 306.302 392.105 307.53C391.309 308.881 390.068 309.948 388.573 310.566Z" fill="#3F3D56"/>
<path d="M86.8689 125.096C96.0162 101.337 110.291 79.6526 128.779 61.4315C144.465 45.9785 168.878 46.6206 168.878 46.6206L169.017 46.4564C174.892 39.5805 182.777 34.5043 191.681 31.8647C200.585 29.2251 210.112 29.1395 219.067 31.6188C221.394 32.2527 223.185 32.5336 224.036 32.2513C239.56 27.0953 238.831 15.4576 252.224 6.08238C275.676 -10.3331 353.462 8.4705 364.431 38.6769C373.32 63.1585 413.003 75.0245 427.828 93.751C430.146 96.6791 432.421 99.6411 434.652 102.637C435.698 104.029 436.732 105.431 437.754 106.844C448.258 121.28 457.681 136.397 465.954 152.085C471.379 162.334 476.094 172.908 480.068 183.74C495.529 226.634 490.242 258.591 447.611 250.696C442.564 249.759 437.639 248.921 432.835 248.181C425.878 247.104 419.165 246.218 412.693 245.525C403.979 244.584 395.688 243.968 387.821 243.676C385.176 243.575 382.58 243.507 380.031 243.473C342.356 242.977 314.41 249.707 293.12 260.153C289.511 261.919 286.091 263.787 282.859 265.758C277.924 268.752 273.212 272.065 268.756 275.673C262.59 280.694 256.904 286.224 251.764 292.196L251.481 292.524C226.58 321.43 218.385 353.43 201.063 359.064C127.018 383.154 80.187 295.829 75.3844 210.407C75.1419 206.103 75.008 201.81 74.9825 197.531C74.9675 195.618 74.9775 193.71 75.0123 191.807C75.0883 186.842 75.3189 181.91 75.7051 177.037C75.8493 175.174 76.0166 173.321 76.207 171.478C76.4167 169.49 76.6449 167.514 76.9087 165.55C78.7923 151.157 82.0876 137.464 86.8689 125.096Z" fill="#1E5067"/>
<path d="M316.373 172.095C310.46 174.707 310.362 186.41 312.216 190.202L315.577 197.065L336.996 187.621L333.636 180.758C331.778 176.967 322.291 169.491 316.373 172.095Z" fill="#3F3D56"/>
<path d="M258.813 270.635C258.436 270.635 258.065 270.549 257.731 270.383C257.396 270.218 257.109 269.979 256.893 269.686C256.677 269.393 256.539 269.054 256.49 268.7C256.441 268.345 256.483 267.985 256.612 267.649C256.717 267.374 256.878 267.122 257.087 266.907C257.295 266.692 257.546 266.518 257.825 266.396L368.442 217.624C368.721 217.501 369.022 217.431 369.329 217.419C369.637 217.406 369.943 217.451 370.232 217.552C370.521 217.652 370.786 217.805 371.013 218.002C371.239 218.2 371.423 218.438 371.552 218.702C371.813 219.237 371.84 219.848 371.627 220.401C371.414 220.955 370.978 221.405 370.415 221.654L259.799 270.426C259.49 270.564 259.154 270.635 258.813 270.635Z" fill="#3F3D56"/>
<path d="M345.34 191.998L313.721 205.94L363.32 307.25L394.94 293.309L345.34 191.998Z" fill="#E6E6E6"/>
<path d="M226.644 64.4655C220.73 67.0782 220.633 78.7809 222.487 82.5728L225.847 89.4363L247.267 79.9921L243.907 73.1286C242.049 69.3383 232.562 61.8616 226.644 64.4655Z" fill="#3F3D56"/>
<path d="M359.14 322.213L349.41 326.503C347.948 327.188 346.289 327.401 344.687 327.107C343.275 326.79 342.32 325.971 342.069 324.858L339.805 314.823C339.378 312.93 341.03 310.69 343.733 309.498L349.107 307.129C351.81 305.937 354.679 306.183 355.928 307.714L362.55 315.828C363.284 316.727 363.328 317.948 362.673 319.177C361.876 320.528 360.635 321.594 359.14 322.213Z" fill="#3F3D56"/>
<path d="M329.226 336.298L319.496 340.588C318.033 341.273 316.374 341.485 314.773 341.192C313.36 340.875 312.406 340.055 312.155 338.943L309.891 328.907C309.463 327.014 311.115 324.775 313.819 323.583L319.192 321.214C321.896 320.022 324.765 320.268 326.014 321.799L332.635 329.912C333.369 330.812 333.414 332.033 332.758 333.262C331.962 334.613 330.721 335.679 329.226 336.298Z" fill="#3F3D56"/>
<path d="M264.048 101.602L232.428 115.544L332.689 320.331L364.308 306.389L264.048 101.602Z" fill="#E6E6E6"/>
<path d="M296.856 207.17L293.308 199.761L295.35 198.867L298.887 206.252L350.106 314.025L348.066 314.924" fill="#3F3D56"/>
<path d="M336.873 201.011L333.325 193.602L335.367 192.709L338.904 200.094L390.123 307.867L388.083 308.766" fill="#3F3D56"/>
<path d="M278.972 117.991L236.129 136.881C233.402 132.854 225.179 112.217 227.025 106.094L225.639 100.255L255.221 87.2121L259.181 91.8345C265.059 93.546 276.501 112.93 278.972 117.991Z" fill="#E6E6E6"/>
<path d="M256.458 87.4619L225.931 100.922C224.804 101.419 223.604 101.236 223.25 100.514C223.2 100.41 223.168 100.298 223.157 100.184L221.577 84.1889C221.51 83.5039 222.127 82.7278 223.071 82.3118L243.315 73.3857C244.259 72.9697 245.282 73.0225 245.79 73.5133L257.652 84.9746C258.259 85.5609 257.929 86.5643 256.916 87.2159C256.77 87.3094 256.617 87.3917 256.458 87.4619Z" fill="#E6E6E6"/>
<path d="M280.401 212.777C280.07 212.778 279.741 212.741 279.42 212.667C278.967 212.578 278.542 212.392 278.177 212.123C277.811 211.854 277.516 211.509 277.313 211.115L258.649 172.994C257.877 171.415 258.914 169.397 260.961 168.495L288.289 156.445C290.336 155.542 292.63 156.092 293.403 157.67L312.067 195.791C312.253 196.193 312.34 196.63 312.321 197.068C312.303 197.506 312.178 197.935 311.958 198.321C311.479 199.194 310.702 199.888 309.755 200.29L282.427 212.339C281.793 212.623 281.102 212.773 280.401 212.777Z" fill="#3F3D56"/>
<path d="M284.138 218.547L252.519 232.489L302.119 333.799L333.738 319.858L284.138 218.547Z" fill="#E6E6E6"/>
<path d="M245.184 89.133L235.911 93.2214C234.122 94.0103 231.708 92.6957 230.531 90.2912C229.353 87.8868 229.852 85.2881 231.641 84.4992L240.913 80.4108C242.703 79.6218 245.117 80.9365 246.294 83.3409C247.471 85.7454 246.973 88.344 245.184 89.133Z" fill="#3F3D56"/>
<path d="M255.788 198.372C249.875 200.984 249.777 212.687 251.632 216.479L254.992 223.342L276.411 213.898L273.051 207.035C271.193 203.244 261.706 195.768 255.788 198.372Z" fill="#3F3D56"/>
<path d="M157.559 175.012C155.471 176.332 153.333 173.189 155.462 171.927C157.55 170.607 159.687 173.75 157.559 175.012Z" fill="#E6E6E6"/>
<path d="M374.948 129.851C372.86 131.172 370.722 128.029 372.851 126.767C374.939 125.446 377.077 128.589 374.948 129.851Z" fill="#E6E6E6"/>
<path d="M226.777 165.774C224.689 167.095 222.551 163.952 224.68 162.69C226.768 161.37 228.906 164.513 226.777 165.774Z" fill="#E6E6E6"/>
<path d="M157.559 288.94C155.471 290.26 153.333 287.117 155.462 285.855C157.55 284.535 159.687 287.678 157.559 288.94Z" fill="#E6E6E6"/>
<path d="M264.09 31.8322C262.002 33.1527 259.865 30.0098 261.993 28.7479C264.081 27.4274 266.219 30.5704 264.09 31.8322Z" fill="#E6E6E6"/>
<path d="M161.344 92.3885C159.256 93.709 157.118 90.566 159.247 89.3041C161.335 87.9837 163.473 91.1266 161.344 92.3885Z" fill="#E6E6E6"/>
<path d="M309.125 75.0282L307.796 74.7516L308.087 73.4902L307.201 73.3059L306.91 74.5673L305.581 74.2913L305.387 75.1318L306.716 75.4085L306.425 76.6694L307.31 76.8536L307.602 75.5922L308.931 75.8688L309.125 75.0282Z" fill="#E6E6E6"/>
<path d="M92.7646 180.118L91.4359 179.841L91.7269 178.58L90.8411 178.396L90.5496 179.657L89.2204 179.381L89.0263 180.222L90.3555 180.498L90.0646 181.76L90.9503 181.943L91.2418 180.682L92.5705 180.959L92.7646 180.118Z" fill="#E6E6E6"/>
<path d="M365.251 233.725C364.145 234.211 362.882 234.261 361.737 233.864C360.593 233.467 359.661 232.655 359.146 231.607L353.677 220.437C353.166 219.388 353.113 218.189 353.532 217.104C353.951 216.018 354.807 215.135 355.912 214.648C357.016 214.161 358.28 214.11 359.424 214.506C360.568 214.902 361.5 215.713 362.015 216.761L367.483 227.931C367.995 228.98 368.048 230.18 367.63 231.266C367.211 232.352 366.356 233.236 365.251 233.725Z" fill="#3F3D56"/>
<path d="M272.239 274.78C271.133 275.266 269.869 275.316 268.725 274.919C267.58 274.522 266.648 273.71 266.134 272.662L260.665 261.492C260.153 260.443 260.101 259.244 260.52 258.159C260.939 257.073 261.795 256.19 262.899 255.703C264.004 255.216 265.267 255.165 266.411 255.561C267.556 255.957 268.488 256.768 269.002 257.816L274.471 268.986C274.983 270.035 275.036 271.235 274.617 272.321C274.199 273.407 273.344 274.291 272.239 274.78Z" fill="#3F3D56"/>
<path d="M356.827 209.32L320.16 225.487C317.825 222.041 310.788 204.379 312.368 199.138L313.144 193.276L335.037 183.083L339.889 186.934C346.724 184.741 356.772 200.815 356.827 209.32Z" fill="#E6E6E6"/>
<path d="M339.804 208.199L330.531 212.288C328.742 213.077 326.019 211.132 324.463 207.953C322.906 204.774 323.096 201.545 324.885 200.756L334.158 196.667C335.947 195.878 338.67 197.823 340.226 201.002C341.782 204.181 341.593 207.41 339.804 208.199Z" fill="#3F3D56"/>
<path d="M261.165 229.237L257.617 221.828L259.659 220.934L263.197 228.319L314.416 336.092L312.375 336.992" fill="#3F3D56"/>
<path d="M296.242 235.597L259.575 251.764C254.166 249.114 245.898 231.77 251.783 225.415L252.559 219.553L274.453 209.36L279.304 213.211C284.334 214.676 294.127 231.265 296.242 235.597Z" fill="#E6E6E6"/>
<path d="M278.464 232.935L269.192 237.023C267.402 237.812 264.849 236.213 263.501 233.459C262.152 230.705 262.511 227.822 264.301 227.033L273.573 222.944C275.362 222.155 277.916 223.754 279.264 226.509C280.612 229.263 280.254 232.146 278.464 232.935Z" fill="#3F3D56"/>
<path d="M92.6291 157.983C123.391 157.983 148.328 134.317 148.328 105.124C148.328 75.9312 123.391 52.2657 92.6291 52.2657C61.8673 52.2657 36.9299 75.9312 36.9299 105.124C36.9299 134.317 61.8673 157.983 92.6291 157.983Z" fill="#F77474"/>
<path opacity="0.3" d="M321.003 160.178L354.852 66.363L317.684 159.055C317.5 159.275 317.374 159.534 317.317 159.809C317.259 160.085 317.272 160.369 317.353 160.639C317.435 160.909 317.583 161.157 317.785 161.361C317.988 161.566 318.239 161.722 318.517 161.816C318.796 161.911 319.095 161.941 319.388 161.904C319.681 161.867 319.961 161.764 320.204 161.604C320.447 161.443 320.646 161.231 320.785 160.983C320.924 160.735 320.999 160.459 321.003 160.178Z" fill="#F0F0F0"/>
<path d="M407.285 104.258C400.659 106.348 393.313 108.401 385.248 110.417C343.53 120.84 287.612 128.971 227.795 133.312C167.977 137.652 111.407 137.684 68.504 133.401C47.6048 131.315 31.0747 128.314 19.3731 124.481C6.98444 120.425 0.474766 115.536 0.024695 109.951C-0.851751 99.0718 21.7704 89.4963 40.9025 83.3793L41.4206 84.8382C15.1472 93.2385 1.02052 102.116 1.64251 109.834C2.43436 119.665 26.8663 127.696 68.6737 131.87C111.482 136.143 167.948 136.111 227.671 131.777C287.394 127.443 343.209 119.328 384.835 108.928C425.487 98.7718 448.349 87.3079 447.557 77.4771C446.899 69.315 429.945 62.3327 399.819 57.8156L400.072 56.295C421.962 59.5772 448.251 65.8959 449.174 77.3597C449.624 82.9442 443.973 88.7153 432.379 94.5126C425.769 97.8171 417.371 101.077 407.285 104.258Z" fill="#3F3D56"/>
<path d="M423.652 198.008C426.848 198.008 429.44 195.549 429.44 192.516C429.44 189.482 426.848 187.023 423.652 187.023C420.456 187.023 417.865 189.482 417.865 192.516C417.865 195.549 420.456 198.008 423.652 198.008Z" fill="#F77474"/>
<path d="M460.424 346.833C463.621 346.833 466.212 344.374 466.212 341.34C466.212 338.307 463.621 335.848 460.424 335.848C457.228 335.848 454.637 338.307 454.637 341.34C454.637 344.374 457.228 346.833 460.424 346.833Z" fill="#F2F2F2"/>
<path d="M263.044 380.274C269.276 380.274 274.328 375.48 274.328 369.566C274.328 363.652 269.276 358.858 263.044 358.858C256.812 358.858 251.76 363.652 251.76 369.566C251.76 375.48 256.812 380.274 263.044 380.274Z" fill="#F2F2F2"/>
<path d="M177.061 238.55C180.258 238.55 182.849 236.091 182.849 233.058C182.849 230.024 180.258 227.565 177.061 227.565C173.865 227.565 171.274 230.024 171.274 233.058C171.274 236.091 173.865 238.55 177.061 238.55Z" fill="#3F3D56"/>
<path d="M371.631 245.698L396.601 251.832L411.916 280.38L386.024 281.344L371.631 245.698Z" fill="#E6E6E6"/>
<path d="M313.995 204.544L327.738 217.593L362.643 289.211L356.216 294.48L313.995 204.544Z" fill="#CCCCCC"/>
<path d="M284.112 216.373L285.191 234.794L318.137 307.243L326.56 306.214L284.112 216.373Z" fill="#CCCCCC"/>
<path d="M283.213 290.792L269.765 311.68L279.679 342.301L298.991 325.906L283.213 290.792Z" fill="#E6E6E6"/>
<path d="M402.01 303.627C395.028 303.627 387.375 303.376 379.051 302.875C335.998 300.281 280.232 291.26 222.025 277.477C163.818 263.693 110.123 246.791 70.8336 229.886C51.6943 221.651 37.0051 213.856 27.1744 206.717C16.7662 199.159 12.2135 192.572 13.6422 187.138C16.4261 176.551 41.076 174.235 61.2645 174.156L61.2714 175.696C33.5472 175.804 17.1913 180 15.2165 187.51C12.7009 197.076 33.2169 212.01 71.5035 228.484C110.707 245.352 164.302 262.221 222.418 275.983C280.533 289.745 336.196 298.75 379.154 301.339C421.106 303.868 446.611 299.831 449.127 290.265C451.215 282.323 437.447 270.623 410.359 257.319L411.105 255.952C430.787 265.619 453.634 279.483 450.701 290.638C449.272 296.072 441.992 299.857 429.062 301.889C421.692 303.046 412.639 303.627 402.01 303.627Z" fill="#3F3D56"/>
</g>
<defs>
<clipPath id="clip0_8_437">
<rect width="488" height="424" fill="white"/>
</clipPath>
</defs>
</svg>
