<svg width="749" height="573" viewBox="0 0 749 573" fill="none" xmlns="http://www.w3.org/2000/svg">
<g clip-path="url(#clip0_8_1041)">
<path d="M749 315.479C749 316.036 748.573 316.487 748.047 316.487H0V314.471H748.047C748.573 314.471 749 314.922 749 315.479Z" fill="#CBD8DF"/>
<path d="M245.962 70.7096C261.575 70.7096 274.231 57.327 274.231 40.8189C274.231 24.3107 261.575 10.9282 245.962 10.9282C230.349 10.9282 217.692 24.3107 217.692 40.8189C217.692 57.327 230.349 70.7096 245.962 70.7096Z" fill="#E4B3BA"/>
<path d="M260.942 77.0166L223.732 88.2578L218.416 100.904L206.456 161.325V256.875C206.456 256.875 191.837 290.599 199.811 320.107C208.334 351.648 238.35 314.42 260.942 318.668C283.534 322.917 319.415 327.133 319.415 327.133L298.152 224.557L292.836 99.4989L260.942 77.0166Z" fill="#CBD8DF"/>
<path d="M253.92 50.6073L248.172 47.5688C248.172 47.5688 246.736 33.8954 243.862 30.8569C240.988 27.8184 240.988 26.2991 240.988 26.2991L245.299 20.222C245.299 20.222 223.746 32.3761 219.435 24.7798C215.125 17.1835 220.872 14.145 220.872 14.145L213.688 8.0679C213.688 8.0679 222.309 14.145 223.746 9.58716C225.183 5.02936 233.804 1.93699 233.804 1.93699C233.804 1.93699 252.63 6.44096 251.12 1.93699C249.609 -2.56697 255.357 1.99083 256.794 3.51009C258.23 5.02936 271.162 20.222 272.599 18.7028C274.036 17.1835 281.22 21.7413 279.783 23.2606C278.346 24.7798 278.346 26.2991 279.783 27.8184C281.22 29.3376 289.841 46.0496 282.657 52.1266C275.473 58.2037 265.415 65.8 266.852 71.8771C268.288 77.9541 266.852 52.1266 253.92 50.6073Z" fill="#2F2E41"/>
<path d="M114.565 125.864C107.309 119.251 104.655 109.931 108.637 105.05C112.618 100.168 121.726 101.573 128.983 108.19C131.917 110.791 134.218 114.097 135.695 117.831L166.104 146.263L153.181 161.067L124.576 131.466C120.864 130.471 117.431 128.55 114.565 125.864Z" fill="#E4B3BA"/>
<path d="M218.735 101.387L238.765 99.4621L256.331 188.043C259.678 204.922 249.214 221.4 233.172 224.514L218.735 227.316L126.72 141.653L140.163 117.957L208.02 162.964L218.735 101.387Z" fill="#CBD8DF"/>
<path d="M174.017 495.317C174.017 495.317 158.13 526.514 159.265 525.314C160.4 524.114 179.691 531.313 179.691 531.313L191.039 500.117L174.017 495.317Z" fill="#E4B3BA"/>
<path d="M150.568 276.948C150.568 276.948 142.436 311.32 143.256 309.862C144.077 308.403 164.45 310.358 164.45 310.358L168.183 277.168L150.568 276.948Z" fill="#E4B3BA"/>
<path d="M292.034 271.168C256.132 276.501 223.703 271.852 197.28 249.946C197.28 249.946 177.989 318.338 213.167 325.537C248.345 332.736 287.495 320.363 292.034 308.364C296.573 296.366 292.034 271.168 292.034 271.168Z" fill="#2F2E41"/>
<path d="M225.082 292.766L185.932 390.33L167.776 503.116L191.606 509.116L234.232 405.328L292.034 305.964L225.082 292.766Z" fill="#2F2E41"/>
<path d="M219.976 264.944C219.976 264.944 210.897 190.553 193.876 185.753C185.578 183.414 177.819 183.64 172.046 184.487C166.227 185.341 161.588 190.041 160.571 196.159L145.103 289.166H166.976L174.017 263.969L192.741 298.54L219.976 264.944Z" fill="#2F2E41"/>
<path d="M164.371 300.94L142.744 298.54L139.406 311.739C139.406 311.739 104.228 345.335 122.385 347.735C140.541 350.134 157.563 336.936 157.563 336.936L182.539 321.786C182.539 321.786 172.882 294.566 166.074 294.566C159.265 294.566 164.371 300.94 164.371 300.94Z" fill="#2F2E41"/>
<path d="M175.719 525.914L154.091 523.514L150.754 536.713C150.754 536.713 115.576 570.309 133.732 572.708C151.889 575.108 168.911 561.91 168.911 561.91L193.887 546.76C193.887 546.76 192.174 518.34 185.365 518.34C178.556 518.34 175.719 525.914 175.719 525.914Z" fill="#2F2E41"/>
<path d="M285.228 344.274C282.62 353.73 275.892 359.973 270.2 358.217C264.509 356.462 262.01 347.373 264.62 337.914C265.614 334.12 267.452 330.633 269.981 327.744L281.509 287.824L299.111 293.943L285.878 332.648C286.543 336.522 286.32 340.509 285.228 344.274Z" fill="#E4B3BA"/>
<path d="M297.411 99.6727L288.233 96.9357C279.579 115.143 275.857 135.527 277.481 155.832L282.01 212.49L267.064 312.075L296.359 320.089L319.445 195.113L297.411 99.6727Z" fill="#CBD8DF"/>
<path d="M118.729 255.373C118.327 254.073 115.281 254.645 114.988 253.482C114.697 252.323 117.62 251.351 119.862 248.085C120.266 247.496 122.814 243.784 121.837 242.223C119.985 239.264 107.098 246.634 104.005 242.498C103.326 241.59 103.047 240.032 101.025 237.132C100.22 235.979 99.7039 235.422 99.0871 235.438C98.2121 235.462 97.899 236.619 96.5236 238.716C94.4611 241.86 93.7167 241.466 92.358 244.042C91.3493 245.955 91.2298 247.177 90.5024 247.249C89.4731 247.351 89.0478 244.969 87.79 244.877C86.5066 244.783 85.2223 247.136 84.5857 248.974C83.3909 252.424 84.1307 255.06 84.2948 257.688C84.473 260.544 84.0545 264.724 81.1199 270.09L53.4408 316.719C59.3852 307.213 76.2589 281.292 83.0573 271.784C85.0199 269.039 87.1289 266.283 90.3751 265.764C93.5004 265.265 97.3031 266.9 102.611 266.805C103.231 266.794 104.956 266.74 105.375 265.773C105.722 264.974 104.861 264.279 105.174 263.527C105.595 262.52 107.486 262.952 110.063 262.283C111.88 261.811 113.114 261.031 114.176 260.36C114.496 260.158 119.264 257.104 118.729 255.373Z" fill="#CBD8DF"/>
<path d="M46.2324 266.26C45.5128 266.093 44.8996 267.839 44.2753 267.655C43.6532 267.472 44.0455 265.675 43.1763 263.569C43.0195 263.189 42.0317 260.796 41.025 260.853C39.1171 260.96 38.82 269.774 36.0077 270.186C35.3905 270.277 34.5866 269.972 32.657 270.185C31.8894 270.269 31.4819 270.376 31.3116 270.701C31.07 271.162 31.5169 271.659 32.0934 272.977C32.9579 274.955 32.5598 275.227 33.3637 276.676C33.9605 277.751 34.4933 278.166 34.3168 278.564C34.0672 279.128 32.8391 278.661 32.4333 279.287C32.0193 279.926 32.7409 281.272 33.4105 282.132C34.6671 283.748 36.1045 284.125 37.3716 284.798C38.7486 285.529 40.5683 286.952 42.2122 290.023L55.8703 317.842C53.173 312.014 46.0094 295.778 43.5576 289.507C42.8497 287.696 42.1789 285.807 42.8749 283.972C43.5449 282.207 45.401 280.705 46.8883 277.923C47.062 277.598 47.5346 276.687 47.2069 276.19C46.936 275.78 46.3649 276.026 46.1065 275.647C45.76 275.138 46.5063 274.281 46.9392 272.751C47.2444 271.672 47.2387 270.806 47.2337 270.062C47.2322 269.837 47.1904 266.482 46.2324 266.26Z" fill="#CBD8DF"/>
<path d="M59.8584 273.047L60.2877 268.856L60.551 268.593C61.7692 267.376 62.5313 266.086 62.8172 264.758C62.8627 264.547 62.8979 264.334 62.934 264.117C63.0765 263.255 63.2535 262.184 64.0371 261.071C64.4756 260.451 65.6355 259.05 66.8318 259.539C67.1547 259.667 67.3727 259.889 67.5241 260.123C67.5621 260.083 67.601 260.042 67.6427 259.998C68.1594 259.467 68.5209 259.273 68.8692 259.085C69.1367 258.941 69.413 258.793 69.8806 258.397C70.0858 258.224 70.25 258.068 70.3884 257.937C70.8082 257.54 71.3451 257.076 72.0806 257.26C72.8603 257.486 73.1276 258.272 73.3049 258.792C73.6216 259.721 73.7192 260.36 73.7837 260.783C73.8069 260.938 73.8339 261.112 73.8543 261.169C74.0249 261.623 76.1671 261.741 76.9731 261.79C78.7848 261.894 80.3526 261.984 80.7296 263.296C81.0001 264.234 80.4363 265.258 79.0055 266.419C78.5598 266.78 78.1142 267.029 77.726 267.215C77.9648 267.454 78.155 267.779 78.1667 268.221C78.1929 269.267 77.1777 270.071 75.1494 270.612C74.6454 270.748 73.9675 270.928 73.0803 270.882C72.6625 270.861 72.2965 270.793 71.9845 270.73C71.938 270.918 71.8526 271.113 71.6988 271.299C71.2474 271.845 70.5184 271.984 69.5288 271.676C68.4363 271.354 67.5731 270.916 66.8114 270.532C66.1461 270.196 65.5724 269.91 65.0911 269.832C64.1958 269.699 63.361 270.284 62.3619 271.061L59.8584 273.047Z" fill="#CBD8DF"/>
<path d="M67.0032 249.176L63.0603 249.8L62.7526 249.598C61.33 248.661 59.9568 248.208 58.67 248.253C58.4654 248.26 58.2612 248.278 58.0531 248.296C57.2287 248.369 56.2038 248.459 54.9872 247.94C54.3088 247.649 52.7329 246.818 52.8772 245.47C52.9123 245.108 53.0595 244.829 53.2358 244.614C53.1889 244.586 53.1419 244.556 53.091 244.525C52.4742 244.131 52.2045 243.81 51.9448 243.502C51.7451 243.265 51.5393 243.02 51.059 242.642C50.8483 242.476 50.6639 242.348 50.5089 242.239C50.0398 241.911 49.4791 241.479 49.4607 240.68C49.4691 239.826 50.1206 239.353 50.5519 239.039C51.321 238.48 51.8805 238.218 52.2515 238.045C52.3872 237.982 52.5397 237.91 52.5864 237.875C52.9591 237.585 52.5233 235.364 52.3639 234.527C51.9994 232.648 51.684 231.022 52.7884 230.303C53.5783 229.789 54.6576 230.106 56.0827 231.275C56.5262 231.639 56.8673 232.031 57.1361 232.381C57.2939 232.076 57.5426 231.799 57.9441 231.675C58.8949 231.383 59.8871 232.218 60.8969 234.155C61.1492 234.636 61.4858 235.284 61.6692 236.202C61.7552 236.635 61.7861 237.027 61.8075 237.362C61.9913 237.362 62.1917 237.4 62.4004 237.51C63.0147 237.833 63.3268 238.543 63.296 239.634C63.2786 240.833 63.0971 241.826 62.9383 242.703C62.8004 243.469 62.6838 244.128 62.7343 244.64C62.8402 245.589 63.5867 246.295 64.5517 247.12L67.0032 249.176Z" fill="#CBD8DF"/>
<path d="M67.5347 236.657L67.964 232.466L68.2273 232.202C69.4455 230.985 70.2076 229.695 70.4935 228.368C70.539 228.157 70.5742 227.943 70.6102 227.726C70.7528 226.864 70.9298 225.793 71.7133 224.68C72.1518 224.061 73.3118 222.659 74.5081 223.149C74.831 223.277 75.0489 223.498 75.2003 223.733C75.2383 223.692 75.2773 223.652 75.3189 223.607C75.8357 223.076 76.1972 222.882 76.5454 222.695C76.813 222.55 77.0893 222.402 77.5569 222.007C77.762 221.833 77.9263 221.677 78.0647 221.546C78.4845 221.15 79.0214 220.686 79.7569 220.87C80.5365 221.095 80.8038 221.881 80.9812 222.402C81.2979 223.33 81.3954 223.969 81.46 224.392C81.4832 224.547 81.5102 224.721 81.5306 224.778C81.7012 225.233 83.8433 225.35 84.6493 225.4C86.4611 225.503 88.0288 225.593 88.4059 226.905C88.6764 227.844 88.1126 228.867 86.6818 230.028C86.2361 230.389 85.7905 230.639 85.4023 230.825C85.6411 231.063 85.8313 231.388 85.843 231.83C85.8692 232.877 84.854 233.68 82.8257 234.221C82.3217 234.357 81.6437 234.537 80.7566 234.492C80.3388 234.47 79.9728 234.402 79.6608 234.339C79.6142 234.527 79.5289 234.723 79.3751 234.908C78.9237 235.454 78.1946 235.593 77.2051 235.285C76.1126 234.964 75.2494 234.526 74.4877 234.141C73.8224 233.806 73.2487 233.519 72.7674 233.441C71.8721 233.309 71.0372 233.893 70.0382 234.671L67.5347 236.657Z" fill="#CBD8DF"/>
<path d="M54.7494 316.957L54.0523 316.229L53.0834 316.121C53.088 316.024 53.0816 315.799 53.0745 315.447C53.0373 313.519 52.9216 307.652 53.6943 298.636C54.2339 292.342 55.1355 285.954 56.3742 279.645C57.615 273.326 58.9027 268.625 59.937 264.846C60.7175 261.996 61.5054 259.293 62.2745 256.66C64.3269 249.624 66.2648 242.979 67.4649 235.399C67.7336 233.707 68.2914 230.184 67.1495 226.027C66.4869 223.616 65.3525 221.346 63.7765 219.283L65.3018 217.981C67.0408 220.26 68.2953 222.774 69.0311 225.451C70.2972 230.06 69.6895 233.899 69.3976 235.743C68.1761 243.457 66.2188 250.166 64.1462 257.269C63.3811 259.893 62.5958 262.584 61.8186 265.422C60.7937 269.166 59.5176 273.827 58.2929 280.065C57.0682 286.298 56.1781 292.608 55.6445 298.822C54.882 307.724 54.9966 313.505 55.0341 315.404C55.0534 316.418 55.0576 316.63 54.7494 316.957Z" fill="#CBD8DF"/>
<path d="M59.5922 221.669C59.5138 221.65 59.4348 221.629 59.3558 221.605C57.7472 221.128 56.4568 219.742 55.5195 217.485C55.0808 216.424 54.9772 215.308 54.7707 213.081C54.7383 212.737 54.5951 211 54.7711 208.697C54.8856 207.193 55.0386 206.589 55.4258 206.114C55.8559 205.585 56.4353 205.283 57.0475 205.131C57.0641 204.931 57.1257 204.737 57.248 204.552C57.7516 203.786 58.5947 204.101 59.0521 204.265C59.2826 204.352 59.5698 204.463 59.8929 204.521C60.4006 204.614 60.7037 204.519 61.1626 204.379C61.6017 204.244 62.1476 204.076 62.9022 204.091C64.3913 204.112 65.4935 204.82 65.857 205.053C67.7713 206.269 68.4322 208.209 69.1971 210.456C69.3491 210.906 69.8535 212.534 69.9709 214.63C70.0557 216.142 69.8683 216.761 69.6534 217.204C69.2145 218.114 68.5424 218.536 66.8743 219.423C65.1316 220.353 64.2572 220.818 63.5403 221.058C61.8721 221.611 60.8246 221.959 59.5922 221.669Z" fill="#CBD8DF"/>
<path d="M506.944 46.2467C506.944 46.2467 517.766 52.9574 514.216 59.5938C510.667 66.2302 505.719 75.2697 509.076 78.1167C512.433 80.9636 517.975 93.5157 517.975 93.5157C517.975 93.5157 541.63 90.0223 539.409 109.451C537.188 128.88 526.076 131.529 535.6 140.076C545.125 148.623 525.701 158.845 525.701 158.845C525.701 158.845 512.292 154.427 509.232 140.84C506.173 127.252 511.959 151.229 510.019 152.948C508.078 154.667 500.543 165.999 495.21 150.933C489.878 135.867 495.158 130.025 488.113 121.133C481.067 112.241 476.277 97.8591 476.487 95.345C476.697 92.8309 468.427 69.8896 481.155 60.9426C493.883 51.9956 506.944 46.2467 506.944 46.2467Z" fill="#2F2E41"/>
<path d="M613.541 257.05C619.824 262.548 627.6 263.577 630.909 259.348C634.218 255.12 631.806 247.236 625.52 241.737C623.037 239.503 620.085 237.931 616.91 237.152L590.009 214.21L580.097 227.788L607.668 248.962C608.987 252.115 611.001 254.889 613.541 257.05Z" fill="#E4B3BA"/>
<path d="M532.918 131.934C532.918 131.934 511.807 117.006 504.894 124.326C497.981 131.646 499.632 149.929 499.632 149.929L554.993 218.148L598.891 247.652L610.662 228.163L573.756 193.342L532.918 131.934Z" fill="#9AC5D3"/>
<path d="M501.973 99.5979L509.632 128.385H467.592L481.436 92.9149L501.973 99.5979Z" fill="#E4B3BA"/>
<path opacity="0.1" d="M501.973 99.5979L509.632 128.385H467.592L481.436 92.9149L501.973 99.5979Z" fill="#141E26"/>
<path d="M410.291 312.143C409.748 320.747 413.507 328.018 418.687 328.383C423.866 328.747 428.503 322.067 429.044 313.459C429.305 310.024 428.785 306.573 427.525 303.394L429.39 266.905L413.176 266.345L413.06 302.376C411.413 305.351 410.463 308.7 410.291 312.143Z" fill="#E4B3BA"/>
<path d="M459.111 169.818C459.111 169.818 458.214 142.982 448.556 141.334C438.897 139.687 425.838 151.796 425.838 151.796L405.887 239.177L408.931 294.082L430.767 292.778L435.891 240.76L459.111 169.818Z" fill="#9AC5D3"/>
<path d="M552.754 490.518C552.754 490.518 568.641 521.714 567.506 520.514C566.371 519.315 547.08 526.514 547.08 526.514L535.732 495.317L552.754 490.518Z" fill="#E4B3BA"/>
<path d="M576.203 272.149C576.203 272.149 584.335 306.521 583.515 305.062C582.695 303.604 562.321 305.559 562.321 305.559L558.588 272.368L576.203 272.149Z" fill="#E4B3BA"/>
<path d="M513.037 118.786H473.373L430.198 149.983L417.715 259.17L424.524 280.767L437.007 305.964C437.007 305.964 424.524 250.771 455.163 272.368C485.802 293.966 488.072 297.565 488.072 297.565L528.924 275.968L544.243 186.578L532.895 137.384L513.037 118.786Z" fill="#9AC5D3"/>
<path d="M434.737 266.369C470.64 271.702 503.068 267.052 529.491 245.146C529.491 245.146 548.782 313.539 513.604 320.738C478.426 327.937 439.276 315.563 434.737 303.565C430.198 291.566 434.737 266.369 434.737 266.369Z" fill="#2F2E41"/>
<path d="M501.689 287.966L540.839 385.53L558.995 498.317L535.165 504.316L492.539 400.528L434.737 301.165L501.689 287.966Z" fill="#2F2E41"/>
<path d="M506.796 260.145C506.796 260.145 515.874 185.753 532.896 180.954C541.194 178.614 548.953 178.841 554.726 179.688C560.544 180.541 565.183 185.242 566.2 191.359L581.669 284.367H559.795L552.754 259.17L534.03 293.741L506.796 260.145Z" fill="#2F2E41"/>
<path d="M562.4 296.141L584.028 293.741L587.365 306.939C587.365 306.939 622.543 340.535 604.387 342.935C586.23 345.335 569.208 332.136 569.208 332.136L544.232 316.987C544.232 316.987 553.889 289.766 560.698 289.766C567.506 289.766 562.4 296.141 562.4 296.141Z" fill="#2F2E41"/>
<path d="M551.052 521.114L572.68 518.715L576.017 531.913C576.017 531.913 611.195 565.509 593.039 567.909C574.882 570.309 557.861 557.11 557.861 557.11L532.884 541.961C532.884 541.961 534.598 513.54 541.406 513.54C548.215 513.54 551.052 521.114 551.052 521.114Z" fill="#2F2E41"/>
<path d="M491.985 105.853C505.967 105.853 517.302 93.8683 517.302 79.0839C517.302 64.2994 505.967 52.3142 491.985 52.3142C478.002 52.3142 466.667 64.2994 466.667 79.0839C466.667 93.8683 478.002 105.853 491.985 105.853Z" fill="#E4B3BA"/>
<path d="M501.69 49.1911C501.69 49.1911 505.909 61.6836 499.158 64.3606C492.407 67.0376 483.124 70.6068 483.967 75.0684C484.811 79.53 481.436 92.9149 481.436 92.9149C481.436 92.9149 501.69 106.3 488.187 119.684C474.684 133.069 464.557 127.554 466.667 140.573C468.777 153.593 447.679 148.239 447.679 148.239C447.679 148.239 440.084 135.746 445.991 123.254C451.898 110.761 441.771 133.069 439.24 133.069C436.708 133.069 424.049 136.639 429.113 121.469C434.176 106.3 441.771 105.407 441.771 93.8072C441.771 82.207 446.835 67.9299 448.523 66.1452C450.211 64.3606 457.806 41.1602 472.997 42.9449C488.187 44.7295 501.69 49.1911 501.69 49.1911Z" fill="#2F2E41"/>
<path d="M280.407 490.518C280.407 490.518 264.52 521.714 265.655 520.514C266.79 519.315 286.081 526.514 286.081 526.514L297.429 495.317L280.407 490.518Z" fill="#A0616A"/>
<path d="M398.424 266.369C362.522 271.702 330.093 267.052 303.67 245.146C303.67 245.146 284.379 313.539 319.557 320.738C354.735 327.937 393.885 315.563 398.424 303.565C402.963 291.566 398.424 266.369 398.424 266.369Z" fill="#2F2E41"/>
<path d="M331.472 287.966L292.322 385.53L274.166 498.317L297.996 504.316L340.622 400.528L398.424 301.165L331.472 287.966Z" fill="#2F2E41"/>
<path d="M282.109 521.114L260.481 518.715L257.144 531.913C257.144 531.913 221.966 565.509 240.122 567.909C258.279 570.309 275.301 557.11 275.301 557.11L300.277 541.961C300.277 541.961 298.563 513.54 291.755 513.54C284.946 513.54 282.109 521.114 282.109 521.114Z" fill="#2F2E41"/>
<path d="M316.279 474.105C316.279 474.105 310.27 508.962 310.999 507.45C311.728 505.939 332.179 506.494 332.179 506.494L333.871 473.118L316.279 474.105Z" fill="#A0616A"/>
<path d="M305.755 264.776L296.981 370.351L312.618 483.559L337.036 481.492L347.301 368.863L373.292 255.491L305.755 264.776Z" fill="#2F2E41"/>
<path d="M326.826 502.653L305.553 507.426L306.229 521.069C306.229 521.069 282.569 564.501 300.54 560.862C318.511 557.222 330.852 539.114 330.852 539.114L350.19 516.557C350.19 516.557 340.268 490.081 333.791 492.302C327.314 494.523 326.826 502.653 326.826 502.653Z" fill="#2F2E41"/>
<path d="M326.218 46.2467C326.218 46.2467 315.396 52.9574 318.945 59.5938C322.494 66.2302 327.442 75.2697 324.085 78.1167C320.729 80.9636 315.187 93.5157 315.187 93.5157C315.187 93.5157 291.532 90.0223 293.752 109.451C295.973 128.88 307.086 131.529 297.561 140.076C288.036 148.623 307.46 158.845 307.46 158.845C307.46 158.845 320.87 154.427 323.929 140.84C326.988 127.252 321.202 151.229 323.143 152.948C325.083 154.667 332.619 165.999 337.951 150.933C343.283 135.867 338.003 130.025 345.049 121.133C352.094 112.241 356.884 97.8591 356.675 95.345C356.465 92.8309 364.734 69.8896 352.006 60.9426C339.278 51.9956 326.218 46.2467 326.218 46.2467Z" fill="#2F2E41"/>
<path d="M331.189 99.5979L323.529 128.385H365.569L351.726 92.9149L331.189 99.5979Z" fill="#A0616A"/>
<path opacity="0.1" d="M331.189 99.5979L323.529 128.385H365.569L351.726 92.9149L331.189 99.5979Z" fill="#141E26"/>
<path d="M422.87 312.143C423.413 320.747 419.654 328.018 414.475 328.383C409.296 328.747 404.659 322.067 404.117 313.459C403.856 310.024 404.377 306.573 405.636 303.394L403.772 266.905L419.985 266.345L420.101 302.376C421.749 305.351 422.698 308.7 422.87 312.143Z" fill="#A0616A"/>
<path d="M374.051 169.818C374.051 169.818 374.947 142.982 384.606 141.334C394.264 139.687 407.323 151.796 407.323 151.796L427.274 239.177L424.23 294.082L402.395 292.778L397.27 240.76L374.051 169.818Z" fill="#1E5067"/>
<path d="M320.124 118.786H359.788L402.963 149.983L415.446 259.17L408.637 280.767L396.155 305.964C396.155 305.964 408.637 250.771 377.998 272.368C377.692 272.584 377.388 272.798 377.087 273.011C357.364 286.94 331.34 285.509 313.083 269.501L298.563 256.77L306.507 214.775L300.266 137.384L320.124 118.786Z" fill="#1E5067"/>
<path d="M220.876 255.486C214.514 260.883 206.724 261.786 203.476 257.505C200.229 253.224 202.754 245.38 209.118 239.982C211.632 237.789 214.607 236.264 217.793 235.536L245.02 213.03L254.737 226.765L226.864 247.494C225.5 250.625 223.447 253.366 220.876 255.486Z" fill="#A0616A"/>
<path d="M303.288 131.68C303.288 131.68 324.611 117.093 331.418 124.523C338.225 131.953 336.311 150.208 336.311 150.208L279.976 217.529L235.659 246.325L224.169 226.649L261.571 192.425L303.288 131.68Z" fill="#1E5067"/>
<path d="M341.177 105.853C355.159 105.853 366.494 93.8683 366.494 79.0839C366.494 64.2994 355.159 52.3142 341.177 52.3142C327.194 52.3142 315.859 64.2994 315.859 79.0839C315.859 93.8683 327.194 105.853 341.177 105.853Z" fill="#A0616A"/>
<path d="M328.573 61.1404C328.573 61.1404 324.843 47.9944 331.06 47.9944C337.276 47.9944 362.142 49.309 364.629 51.9382C367.115 54.5674 396.539 80.9546 379.133 101.988C361.727 123.022 379.133 133.185 379.133 133.185C379.133 133.185 391.981 164.994 379.548 167.623C367.115 170.252 316.116 155.218 328.573 130.814C342.091 104.33 348.38 62.5301 328.573 61.1404Z" fill="#2F2E41"/>
<path d="M742.858 256.573C742.456 255.272 739.41 255.845 739.117 254.682C738.826 253.523 741.749 252.551 743.991 249.285C744.395 248.696 746.943 244.984 745.966 243.423C744.114 240.464 731.227 247.834 728.134 243.698C727.455 242.79 727.176 241.232 725.153 238.332C724.349 237.179 723.833 236.622 723.216 236.638C722.341 236.661 722.028 237.819 720.652 239.916C718.59 243.06 717.846 242.665 716.487 245.242C715.478 247.154 715.359 248.376 714.631 248.449C713.602 248.55 713.177 246.169 711.919 246.077C710.635 245.983 709.351 248.335 708.714 250.174C707.52 253.624 708.26 256.26 708.424 258.888C708.602 261.744 708.183 265.924 705.249 271.29L677.57 317.918C683.514 308.413 700.388 282.492 707.186 272.984C709.149 270.239 711.258 267.483 714.504 266.964C717.629 266.465 721.432 268.1 726.74 268.005C727.359 267.994 729.085 267.94 729.504 266.973C729.851 266.173 728.99 265.479 729.303 264.727C729.723 263.719 731.614 264.152 734.191 263.483C736.009 263.011 737.243 262.231 738.305 261.56C738.625 261.358 743.393 258.304 742.858 256.573Z" fill="#CBD8DF"/>
<path d="M670.361 267.46C669.642 267.293 669.029 269.039 668.404 268.855C667.782 268.672 668.174 266.875 667.305 264.769C667.148 264.389 666.161 261.996 665.154 262.053C663.246 262.16 662.949 270.974 660.137 271.386C659.519 271.476 658.715 271.172 656.786 271.385C656.018 271.469 655.611 271.576 655.441 271.901C655.199 272.362 655.646 272.858 656.222 274.177C657.087 276.155 656.689 276.427 657.493 277.876C658.089 278.951 658.622 279.366 658.446 279.764C658.196 280.327 656.968 279.861 656.562 280.487C656.148 281.126 656.87 282.471 657.539 283.332C658.796 284.948 660.233 285.324 661.501 285.997C662.878 286.729 664.697 288.152 666.341 291.223L679.999 319.041C677.302 313.214 670.138 296.978 667.687 290.707C666.979 288.896 666.308 287.007 667.004 285.172C667.674 283.406 669.53 281.905 671.017 279.123C671.191 278.798 671.664 277.887 671.336 277.39C671.065 276.98 670.494 277.226 670.235 276.847C669.889 276.338 670.635 275.481 671.068 273.951C671.373 272.872 671.368 272.006 671.363 271.261C671.361 271.037 671.319 267.681 670.361 267.46Z" fill="#CBD8DF"/>
<path d="M683.987 274.247L684.417 270.056L684.68 269.793C685.898 268.575 686.66 267.286 686.946 265.958C686.992 265.747 687.027 265.534 687.063 265.316C687.205 264.455 687.382 263.384 688.166 262.271C688.604 261.651 689.764 260.25 690.961 260.739C691.284 260.867 691.502 261.089 691.653 261.323C691.691 261.283 691.73 261.242 691.772 261.198C692.288 260.667 692.65 260.472 692.998 260.285C693.266 260.141 693.542 259.993 694.01 259.597C694.215 259.424 694.379 259.268 694.517 259.137C694.937 258.74 695.474 258.276 696.21 258.46C696.989 258.685 697.256 259.472 697.434 259.992C697.75 260.921 697.848 261.559 697.913 261.983C697.936 262.138 697.963 262.312 697.983 262.368C698.154 262.823 700.296 262.941 701.102 262.99C702.914 263.094 704.481 263.184 704.858 264.496C705.129 265.434 704.565 266.458 703.134 267.619C702.689 267.98 702.243 268.229 701.855 268.415C702.094 268.654 702.284 268.979 702.296 269.421C702.322 270.467 701.307 271.27 699.278 271.812C698.774 271.948 698.096 272.128 697.209 272.082C696.791 272.06 696.425 271.993 696.113 271.93C696.067 272.118 695.982 272.313 695.828 272.499C695.376 273.045 694.647 273.184 693.658 272.876C692.565 272.554 691.702 272.116 690.94 271.731C690.275 271.396 689.701 271.11 689.22 271.031C688.325 270.899 687.49 271.483 686.491 272.261L683.987 274.247Z" fill="#CBD8DF"/>
<path d="M691.132 250.376L687.189 251L686.882 250.798C685.459 249.86 684.086 249.408 682.799 249.452C682.594 249.459 682.39 249.478 682.182 249.496C681.358 249.569 680.333 249.659 679.116 249.14C678.438 248.849 676.862 248.018 677.006 246.67C677.041 246.307 677.188 246.028 677.365 245.814C677.318 245.786 677.271 245.756 677.22 245.725C676.603 245.331 676.333 245.01 676.074 244.702C675.874 244.465 675.668 244.22 675.188 243.842C674.977 243.676 674.793 243.547 674.638 243.439C674.169 243.11 673.608 242.679 673.59 241.88C673.598 241.025 674.25 240.553 674.681 240.239C675.45 239.68 676.009 239.418 676.38 239.245C676.516 239.182 676.669 239.11 676.715 239.075C677.088 238.785 676.652 236.564 676.493 235.727C676.128 233.848 675.813 232.222 676.917 231.503C677.707 230.988 678.786 231.306 680.212 232.474C680.655 232.839 680.996 233.231 681.265 233.581C681.423 233.276 681.671 232.999 682.073 232.875C683.024 232.583 684.016 233.418 685.026 235.355C685.278 235.836 685.615 236.483 685.798 237.402C685.884 237.835 685.915 238.227 685.936 238.562C686.12 238.562 686.321 238.599 686.529 238.71C687.144 239.033 687.456 239.743 687.425 240.833C687.408 242.032 687.226 243.026 687.067 243.903C686.929 244.668 686.813 245.328 686.863 245.84C686.969 246.789 687.716 247.495 688.681 248.319L691.132 250.376Z" fill="#CBD8DF"/>
<path d="M691.664 237.856L692.093 233.665L692.356 233.402C693.574 232.185 694.336 230.895 694.622 229.568C694.668 229.357 694.703 229.143 694.739 228.926C694.882 228.064 695.059 226.993 695.842 225.88C696.281 225.26 697.441 223.859 698.637 224.349C698.96 224.477 699.178 224.698 699.329 224.933C699.367 224.892 699.406 224.851 699.448 224.807C699.965 224.276 700.326 224.082 700.674 223.894C700.942 223.75 701.218 223.602 701.686 223.207C701.891 223.033 702.055 222.877 702.194 222.746C702.613 222.35 703.15 221.886 703.886 222.069C704.665 222.295 704.933 223.081 705.11 223.602C705.427 224.53 705.524 225.169 705.589 225.592C705.612 225.747 705.639 225.921 705.659 225.978C705.83 226.433 707.972 226.55 708.778 226.599C710.59 226.703 712.158 226.793 712.535 228.105C712.805 229.043 712.241 230.067 710.811 231.228C710.365 231.589 709.919 231.838 709.531 232.025C709.77 232.263 709.96 232.588 709.972 233.03C709.998 234.077 708.983 234.88 706.955 235.421C706.451 235.557 705.773 235.737 704.885 235.692C704.468 235.67 704.102 235.602 703.79 235.539C703.743 235.727 703.658 235.922 703.504 236.108C703.053 236.654 702.324 236.793 701.334 236.485C700.241 236.163 699.378 235.726 698.617 235.341C697.951 235.006 697.378 234.719 696.896 234.641C696.001 234.508 695.166 235.093 694.167 235.871L691.664 237.856Z" fill="#CBD8DF"/>
<path d="M678.878 318.157L678.181 317.429L677.212 317.321C677.217 317.224 677.211 316.999 677.203 316.647C677.166 314.719 677.05 308.851 677.823 299.836C678.363 293.542 679.264 287.154 680.503 280.845C681.744 274.526 683.032 269.825 684.066 266.046C684.846 263.196 685.634 260.493 686.403 257.859C688.456 250.824 690.394 244.179 691.594 236.599C691.863 234.907 692.42 231.384 691.278 227.227C690.616 224.816 689.481 222.546 687.905 220.483L689.431 219.181C691.17 221.46 692.424 223.974 693.16 226.651C694.426 231.26 693.818 235.098 693.527 236.942C692.305 244.656 690.348 251.366 688.275 258.469C687.51 261.092 686.725 263.784 685.948 266.622C684.923 270.366 683.646 275.027 682.422 281.264C681.197 287.498 680.307 293.808 679.773 300.022C679.011 308.924 679.125 314.704 679.163 316.603C679.182 317.617 679.187 317.83 678.878 318.157Z" fill="#CBD8DF"/>
<path d="M683.721 222.868C683.643 222.85 683.564 222.829 683.485 222.804C681.876 222.328 680.586 220.941 679.648 218.685C679.21 217.624 679.106 216.508 678.9 214.281C678.867 213.937 678.724 212.2 678.9 209.897C679.015 208.393 679.168 207.788 679.555 207.314C679.985 206.785 680.564 206.483 681.176 206.331C681.193 206.131 681.255 205.937 681.377 205.752C681.881 204.986 682.724 205.301 683.181 205.464C683.412 205.552 683.699 205.663 684.022 205.721C684.529 205.814 684.833 205.719 685.292 205.579C685.731 205.444 686.277 205.276 687.031 205.291C688.52 205.312 689.622 206.02 689.986 206.253C691.9 207.469 692.561 209.409 693.326 211.656C693.478 212.106 693.982 213.734 694.1 215.83C694.185 217.342 693.997 217.961 693.782 218.404C693.343 219.314 692.671 219.736 691.003 220.623C689.261 221.553 688.386 222.018 687.669 222.258C686.001 222.811 684.953 223.159 683.721 222.868Z" fill="#CBD8DF"/>
<path d="M189.689 245.602L188.409 202.896C188.388 202.203 188.646 201.528 189.116 201.044C189.587 200.561 190.232 200.307 190.888 200.348L222.938 202.381C223.586 202.422 224.194 202.749 224.605 203.279C225.017 203.808 225.204 204.502 225.117 205.181L219.695 247.628C219.531 248.912 218.445 249.851 217.222 249.765L191.873 247.992C191.616 247.974 191.371 247.914 191.145 247.817C190.307 247.459 189.72 246.608 189.689 245.602Z" fill="#1E5067"/>
<path d="M188.449 198.901C188.897 198.851 189.498 198.789 190.219 198.725C190.026 198.346 189.947 197.897 190.03 197.436L190.602 194.237C190.751 193.407 191.383 192.771 192.175 192.659C196.895 191.992 213.127 190.181 223.347 195.084C223.987 195.391 224.398 196.065 224.419 196.807L224.512 200.219C224.524 200.641 224.408 201.033 224.204 201.357C225.054 201.598 225.901 201.854 226.741 202.132C227.268 202.307 227.645 202.798 227.708 203.378L227.867 204.831C227.967 205.754 227.252 206.547 226.376 206.484L188.059 203.748C187.187 203.686 186.579 202.806 186.789 201.909L187.231 200.022C187.373 199.414 187.86 198.966 188.449 198.901Z" fill="#3F3D56"/>
<path d="M93.2332 124.416L91.9528 81.71C91.932 81.0168 92.1897 80.3419 92.66 79.8584C93.1305 79.3746 93.7761 79.121 94.4313 79.1625L126.482 81.195C127.13 81.2357 127.737 81.5631 128.149 82.0928C128.561 82.6224 128.748 83.3157 128.661 83.9951L123.239 126.442C123.075 127.726 121.988 128.665 120.766 128.579L95.4172 126.806C95.16 126.788 94.9151 126.728 94.6883 126.631C93.8512 126.273 93.2634 125.422 93.2332 124.416Z" fill="#1E5067"/>
<path d="M91.9926 77.7149C92.441 77.665 93.0416 77.6036 93.7628 77.5396C93.57 77.16 93.4911 76.7112 93.5735 76.2505L94.1459 73.0516C94.2944 72.2213 94.927 71.5849 95.7191 71.4729C100.438 70.8056 116.67 68.9954 126.891 73.8984C127.531 74.2051 127.942 74.8787 127.962 75.6208L128.056 79.0336C128.067 79.4556 127.951 79.8466 127.748 80.1709C128.598 80.4125 129.445 80.6679 130.285 80.9465C130.811 81.121 131.188 81.6123 131.252 82.1919L131.41 83.6455C131.511 84.568 130.796 85.361 129.92 85.2984L91.6024 82.5623C90.7304 82.5 90.1231 81.6202 90.3329 80.7232L90.7744 78.836C90.9166 78.228 91.4035 77.7805 91.9926 77.7149Z" fill="#3F3D56"/>
<path d="M595.94 256.401L594.66 213.695C594.639 213.001 594.897 212.327 595.367 211.843C595.838 211.359 596.483 211.106 597.139 211.147L629.189 213.18C629.837 213.22 630.445 213.548 630.856 214.078C631.268 214.607 631.455 215.3 631.368 215.98L625.946 258.426C625.782 259.711 624.696 260.649 623.473 260.564L598.124 258.791C597.867 258.773 597.622 258.713 597.396 258.616C596.558 258.258 595.971 257.407 595.94 256.401Z" fill="#1E5067"/>
<path d="M594.7 209.7C595.148 209.65 595.749 209.588 596.47 209.524C596.277 209.145 596.198 208.696 596.281 208.235L596.853 205.036C597.002 204.206 597.634 203.57 598.426 203.458C603.146 202.79 619.378 200.98 629.598 205.883C630.238 206.19 630.649 206.863 630.67 207.605L630.763 211.018C630.775 211.44 630.659 211.831 630.455 212.156C631.305 212.397 632.152 212.653 632.992 212.931C633.519 213.106 633.896 213.597 633.959 214.177L634.118 215.63C634.218 216.553 633.503 217.346 632.627 217.283L594.31 214.547C593.438 214.485 592.83 213.605 593.04 212.708L593.482 210.821C593.624 210.213 594.111 209.765 594.7 209.7Z" fill="#3F3D56"/>
</g>
<defs>
<clipPath id="clip0_8_1041">
<rect width="749" height="573" fill="white"/>
</clipPath>
</defs>
</svg>
