<svg width="676" height="676" viewBox="0 0 676 676" fill="none" xmlns="http://www.w3.org/2000/svg">
<path d="M143.348 202.032C142.825 205.209 143.004 208.462 143.874 211.563C144.744 214.663 146.284 217.535 148.384 219.976C150.484 222.417 153.093 224.368 156.029 225.691C158.964 227.014 162.154 227.678 165.374 227.635L219.328 384.628L253.755 360.968L187.296 203.731C186.866 198.326 184.468 193.268 180.557 189.514C176.646 185.759 171.494 183.57 166.077 183.361C160.659 183.151 155.353 184.936 151.164 188.378C146.975 191.819 144.194 196.677 143.348 202.032Z" fill="#E4B3BA"/>
<path d="M424.955 255.15C400.995 282.41 341.915 330.45 293.245 363.53C282.725 370.68 272.685 377.12 263.595 382.51C257.455 386.15 251.745 389.3 246.605 391.87C243.156 393.589 239.388 394.576 235.539 394.771C231.69 394.966 227.842 394.364 224.236 393.003C220.63 391.642 217.344 389.551 214.584 386.861C211.824 384.171 209.649 380.94 208.195 377.37L174.495 295.84L186.155 288.11L214.905 269.04L221.435 264.72L248.395 328.93L276.825 306.11L294.475 291.94L374.935 227.37L381.875 225.31L398.065 241.11L409.515 252.29L420.285 254.16C421.895 254.44 423.455 254.77 424.955 255.15Z" fill="#9AC5D3"/>
<path d="M465.185 342.55L462.165 549.96L218.205 542.96L257.165 456.96C256.885 454.2 274.265 434.83 274.165 431.96C273.865 423.55 280.145 415.76 281.165 406.96C283.245 388.81 271.335 320.27 276.825 306.11C279.164 299.787 282.161 293.727 285.765 288.03C288.885 283.31 292.085 280.13 295.145 278.98L304.165 257.96L312.165 245.96L374.935 227.37L381.875 225.31L398.065 241.11L409.515 252.29L420.285 254.16C421.895 254.44 423.455 254.77 424.955 255.15C432.18 256.816 438.913 260.152 444.615 264.89C463.415 280.86 465.605 310.9 465.185 342.55Z" fill="#9AC5D3"/>
<path d="M605.29 548.402C598.41 557.032 591.12 565.306 583.42 573.222L557.04 573.242L415.17 573.402L389.63 573.432L372.65 573.452L347.39 573.472L327.96 573.492L292.07 573.532L270.9 573.562L226.32 573.602L205.04 573.632L146.07 573.692L109.03 573.732L99.09 573.742C96.88 571.482 94.7034 569.189 92.56 566.862C87.22 561.072 82.0834 555.102 77.15 548.952L97.73 548.932L111.75 548.922L144.21 548.882L206.85 548.822L228.02 548.802L236.58 548.792H236.61L243.33 548.782L246.34 548.772L254.05 548.762H257.31L280.17 548.742L329.48 548.682L351.18 548.662L371.96 548.642L391.44 548.622L419.39 548.592L568.67 548.442L605.29 548.402Z" fill="#CCCCCC"/>
<path d="M267.766 236.972L267.711 236.977C264.827 237.246 261.953 236.357 259.724 234.507C257.494 232.657 256.09 229.997 255.822 227.112L250.135 166.412C249.106 155.539 250.273 144.569 253.568 134.155C260.027 113.83 274.08 96.7823 292.798 86.5634C302.463 81.3009 313.094 78.0498 324.049 77.0061C368.869 72.7361 385.248 82.0706 412.934 150.427C440.62 218.784 418.629 211.219 418.629 211.219C418.768 212.682 418.611 214.158 418.167 215.559C417.295 218.292 415.402 220.582 412.881 221.952C411.588 222.653 410.167 223.087 408.703 223.229C355.716 236.697 302.251 250.874 267.757 236.973L267.766 236.972Z" fill="#2F2E41"/>
<path d="M366.387 134.521C373.039 144.362 376.625 155.953 376.692 167.831C376.759 179.709 373.305 191.34 366.766 201.256C360.227 211.172 350.896 218.928 339.951 223.544C329.007 228.16 316.94 229.429 305.275 227.191C297.553 225.735 290.196 222.761 283.632 218.441C277.068 214.121 271.426 208.542 267.033 202.026C260.396 192.188 256.82 180.605 256.756 168.738C256.693 156.871 260.144 145.25 266.675 135.342C273.207 125.433 282.526 117.68 293.457 113.061C304.388 108.441 316.443 107.161 328.101 109.383C335.829 110.83 343.193 113.798 349.765 118.114C356.337 122.429 361.988 128.007 366.388 134.523L366.387 134.521Z" fill="#E4B3BA"/>
<path d="M231.346 173.156C230.532 164.556 231.456 155.88 234.062 147.644C234.666 127.497 240.511 109.248 265.084 110.014C272.68 105.882 281.03 103.32 289.636 102.481L301.779 101.281C301.916 101.268 302.052 101.255 302.189 101.242C310.602 100.459 319.086 101.341 327.159 103.837C335.231 106.333 342.732 110.395 349.235 115.79C355.738 121.185 361.114 127.808 365.057 135.281C369 142.754 371.432 150.931 372.215 159.344L372.329 160.56L346.638 163.071L335.581 139.409L336.126 164.104L322.857 165.406L317.281 153.468L317.554 165.919C297.852 183.271 267.977 184.18 231.471 174.373L231.346 173.156Z" fill="#2F2E41"/>
<path d="M313.525 230.755C313.306 232.755 313.653 234.776 314.527 236.589C314.967 237.517 315.534 238.379 316.214 239.15C316.795 239.806 317.452 240.392 318.17 240.894C320.299 242.376 322.885 243.051 325.466 242.798C325.627 242.781 325.787 242.761 325.948 242.739C326.108 242.716 326.268 242.69 326.427 242.66C326.588 242.631 326.748 242.598 326.907 242.56C327.066 242.523 327.225 242.482 327.385 242.438L336.351 239.926L346.4 211.906L348.704 236.493L389.477 225.141L379.702 120.806L310.207 127.654L312.113 129.489C318.446 135.653 322.955 143.444 325.145 152.006C327.318 160.681 327.989 169.665 327.128 178.568C326.324 187.569 324.657 196.473 322.151 205.156C319.97 212.845 317.347 220.402 314.296 227.789C313.902 228.737 313.642 229.735 313.525 230.755Z" fill="#2F2E41"/>
<path d="M322.792 559.709C321.597 559.708 320.417 559.441 319.338 558.928L126.818 563.84C125.341 563.14 124.111 562.009 123.29 560.595C122.469 559.181 122.096 557.552 122.221 555.922C122.346 554.292 122.962 552.738 123.988 551.466C125.014 550.194 126.402 549.262 127.968 548.795L253.92 511.24C255.225 510.851 256.606 510.799 257.936 511.086L452.762 534.833C454.486 535.205 456.041 536.132 457.189 537.471C458.337 538.81 459.016 540.488 459.121 542.249C459.225 544.01 458.751 545.756 457.771 547.222C456.79 548.688 455.356 549.793 453.689 550.368L325.43 559.265C324.581 559.558 323.69 559.708 322.792 559.709Z" fill="#3F3D56"/>
<path d="M329.872 546.307C329.003 546.308 328.148 546.085 327.389 545.661L171.035 552.966C170.147 552.468 169.43 551.714 168.977 550.802C168.523 549.891 168.355 548.864 168.493 547.856C168.632 546.847 169.071 545.904 169.753 545.148C170.435 544.393 171.329 543.86 172.319 543.62L228.922 529.881C229.806 529.668 230.73 529.695 231.6 529.96L376.953 529.785C377.988 530.102 378.894 530.742 379.539 531.611C380.184 532.479 380.534 533.532 380.538 534.614C380.542 535.696 380.199 536.751 379.56 537.625C378.921 538.498 378.02 539.144 376.987 539.468L331.385 546.076C330.895 546.23 330.385 546.307 329.872 546.307Z" fill="#2F2E41"/>
<path d="M313.415 537.974C316.121 539.718 319.177 540.849 322.367 541.285C325.558 541.721 328.805 541.452 331.88 540.497C334.955 539.542 337.784 537.925 340.166 535.759C342.549 533.593 344.427 530.931 345.67 527.96L511.165 540.96L503.165 499.96L332.468 498.334C327.339 496.577 321.744 496.763 316.743 498.857C311.742 500.95 307.683 504.805 305.335 509.691C302.986 514.577 302.511 520.155 304.001 525.368C305.49 530.58 308.84 535.066 313.415 537.974Z" fill="#E4B3BA"/>
<path d="M411.165 270.96C411.165 270.96 436.165 250.96 466.165 286.96C486.397 311.238 525.425 458.004 528.661 518.822C528.865 522.671 528.273 526.52 526.92 530.129C525.568 533.737 523.484 537.028 520.801 539.794C518.117 542.559 514.891 544.741 511.325 546.202C507.758 547.663 503.929 548.371 500.076 548.283L411.865 546.748L402.001 491.298L471.645 492.122L411.165 270.96Z" fill="#9AC5D3"/>
<path d="M312.084 559.731C309.058 559.729 306.063 559.123 303.274 557.948L124.832 562.019C120.122 560.055 116.213 556.56 113.736 552.099C111.259 547.639 110.358 542.473 111.181 537.437L104.55 380.725C105.43 375.128 108.376 370.063 112.807 366.532C117.238 363.001 122.833 361.259 128.485 361.652L294.148 368.523C297.328 368.731 300.429 369.606 303.249 371.09C306.069 372.574 308.546 374.634 310.519 377.137C312.492 379.639 313.916 382.529 314.701 385.618C315.485 388.707 315.611 391.926 315.071 395.066L334.48 540.835C333.568 546.117 330.821 550.907 326.725 554.363C322.628 557.82 317.444 559.721 312.084 559.731Z" fill="#3F3D56"/>
<path d="M176.585 93.17L102.115 92.96C100.119 92.9576 98.2034 93.7468 96.7882 95.1546C95.3729 96.5623 94.5735 98.4738 94.5653 100.47L94.2953 199.08C94.2911 201.074 95.0786 202.988 96.4849 204.402C97.8912 205.816 99.8012 206.614 101.795 206.62L143.105 206.74L176.275 206.83C178.271 206.834 180.186 206.045 181.6 204.636C183.014 203.228 183.811 201.316 183.815 199.32L183.835 193.49L184.095 100.72C184.099 98.7233 183.311 96.8066 181.903 95.391C180.494 93.9754 178.582 93.1765 176.585 93.17Z" fill="#E6E6E6"/>
<path d="M171.335 99.0599L107.335 98.8799C105.466 98.8775 103.673 99.6162 102.348 100.934C101.022 102.252 100.274 104.041 100.265 105.91L100.085 169.31C100.073 177.636 103.363 185.627 109.235 191.53C115.106 197.434 123.079 200.767 131.405 200.8L143.565 200.83L171.055 200.91C172.925 200.914 174.719 200.176 176.045 198.858C177.371 197.54 178.119 195.749 178.125 193.88L178.145 187.5L178.365 106.13C178.369 104.26 177.631 102.466 176.313 101.14C174.995 99.8147 173.205 99.0664 171.335 99.0599Z" fill="white"/>
<path d="M164.145 142.38H114.245C113.852 142.38 113.463 142.457 113.099 142.608C112.736 142.758 112.406 142.979 112.128 143.257C111.849 143.535 111.629 143.865 111.478 144.229C111.328 144.592 111.25 144.982 111.25 145.375C111.25 145.768 111.328 146.158 111.478 146.521C111.629 146.884 111.849 147.215 112.128 147.493C112.406 147.771 112.736 147.991 113.099 148.142C113.463 148.292 113.852 148.37 114.245 148.37H164.145C164.94 148.37 165.701 148.054 166.263 147.493C166.825 146.931 167.14 146.169 167.14 145.375C167.14 144.581 166.825 143.819 166.263 143.257C165.701 142.695 164.94 142.38 164.145 142.38Z" fill="#1E5067"/>
<path d="M125.215 125.96H114.245C113.451 125.96 112.689 126.276 112.128 126.837C111.566 127.399 111.25 128.161 111.25 128.955C111.25 129.749 111.566 130.511 112.128 131.073C112.689 131.634 113.451 131.95 114.245 131.95H125.215C126.01 131.95 126.771 131.634 127.333 131.073C127.895 130.511 128.21 129.749 128.21 128.955C128.21 128.161 127.895 127.399 127.333 126.837C126.771 126.276 126.01 125.96 125.215 125.96Z" fill="#1E5067"/>
<path d="M164.145 168.71H114.245C113.451 168.71 112.689 169.026 112.128 169.587C111.566 170.149 111.25 170.911 111.25 171.705C111.25 172.499 111.566 173.261 112.128 173.823C112.689 174.384 113.451 174.7 114.245 174.7H164.145C164.94 174.7 165.701 174.384 166.263 173.823C166.825 173.261 167.14 172.499 167.14 171.705C167.14 170.911 166.825 170.149 166.263 169.587C165.701 169.026 164.94 168.71 164.145 168.71Z" fill="#1E5067"/>
<path d="M164.145 155.55H114.245C113.452 155.55 112.692 155.865 112.131 156.426C111.57 156.986 111.255 157.747 111.255 158.54C111.255 159.333 111.57 160.093 112.131 160.654C112.692 161.215 113.452 161.53 114.245 161.53H164.145C164.938 161.53 165.699 161.215 166.26 160.654C166.82 160.093 167.135 159.333 167.135 158.54C167.135 157.747 166.82 156.986 166.26 156.426C165.699 155.865 164.938 155.55 164.145 155.55Z" fill="#1E5067"/>
<path d="M154.449 136.55C150.945 136.55 147.52 135.511 144.606 133.565C141.693 131.618 139.422 128.851 138.081 125.614C136.74 122.377 136.389 118.814 137.073 115.378C137.757 111.941 139.444 108.784 141.922 106.307C144.399 103.829 147.556 102.142 150.993 101.458C154.429 100.774 157.991 101.125 161.229 102.466C164.466 103.807 167.233 106.078 169.18 108.991C171.126 111.905 172.165 115.33 172.165 118.834C172.16 123.531 170.292 128.034 166.97 131.355C163.649 134.677 159.146 136.545 154.449 136.55ZM154.449 102.349C151.188 102.349 148.001 103.316 145.29 105.127C142.579 106.938 140.466 109.513 139.219 112.525C137.971 115.538 137.644 118.852 138.28 122.05C138.917 125.248 140.487 128.185 142.792 130.491C145.098 132.796 148.035 134.366 151.233 135.002C154.431 135.639 157.745 135.312 160.758 134.064C163.77 132.817 166.344 130.704 168.156 127.993C169.967 125.282 170.934 122.094 170.934 118.834C170.929 114.463 169.191 110.273 166.1 107.183C163.01 104.092 158.82 102.354 154.449 102.349Z" fill="#F77474"/>
<path d="M161.889 125.696C160.666 119.378 158.117 113.391 154.411 108.13C154.328 107.994 154.21 107.881 154.071 107.803C153.931 107.725 153.774 107.684 153.614 107.684C153.454 107.684 153.297 107.725 153.157 107.803C153.017 107.881 152.9 107.994 152.817 108.13C149.589 113.775 147.526 120.01 146.75 126.466C146.606 127.643 148.454 127.632 148.597 126.466C148.856 124.374 149.261 122.302 149.807 120.266C149.878 120.252 149.947 120.231 150.013 120.203C152.469 118.97 155.243 118.518 157.963 118.908C157.987 118.912 158.01 118.906 158.033 118.909C158.932 121.271 159.626 123.706 160.109 126.187C160.334 127.353 162.114 126.859 161.889 125.696ZM150.472 118.001C151.32 115.371 152.399 112.822 153.697 110.383C155.07 112.482 156.263 114.694 157.262 116.995C154.952 116.821 152.632 117.165 150.472 118.001Z" fill="#F77474"/>
</svg>
