<svg width="376" height="498" viewBox="0 0 376 498" fill="none" xmlns="http://www.w3.org/2000/svg">
<g clip-path="url(#clip0_8_675)">
<path d="M160.855 218.311L153.745 173.881L201.745 154.321L208.855 221.871L160.855 218.311Z" fill="#E4B3BA"/>
<path d="M121.485 299.551C121.485 299.551 120.885 418.631 76.475 398.611C53.375 388.201 19.285 344.301 19.285 344.301L33.375 330.811L71.825 362.951L79.065 299.021L121.485 299.531V299.551Z" fill="#E4B3BA"/>
<path d="M140.175 233.341C140.175 233.341 110.745 225.011 94.855 247.891C78.965 270.771 70.855 355.891 70.855 355.891L112.855 376.891L140.175 233.341Z" fill="#9AC5D3"/>
<path d="M299.805 296.651L318.475 367.251L363.755 501.451L340.175 514.831L280.905 381.291L265.925 310.041L299.805 296.651Z" fill="#E4B3BA"/>
<path d="M209.825 196.041L156.245 197.001L151.825 213.041L108.855 237.891L113.325 392.541L246.325 404.541L265.485 299.291L270.325 239.541L214.325 215.541L209.825 196.041Z" fill="#9AC5D3"/>
<path d="M237.175 249.831C237.175 249.831 261.315 226.091 279.655 242.631C297.995 259.171 319.985 368.741 319.985 368.741L281.175 387.831L237.175 249.831Z" fill="#9AC5D3"/>
<path d="M239.325 264.541C239.325 264.541 217.325 263.541 199.325 268.541C181.325 273.541 130.325 262.541 130.325 262.541C142.615 304.391 134.445 348.141 113.825 393.041C86.605 426.451 117.175 489.841 70.325 523.541H265.485L258.325 437.541L247.325 405.541C247.325 405.541 253.325 399.541 251.325 397.541C249.325 395.541 224.325 298.541 239.325 264.541Z" fill="#1E5067"/>
<path d="M144.325 211.541L132.325 272.541L149.325 277.541L145.325 255.541L151.325 208.541L144.325 211.541Z" fill="#3F3D56"/>
<path d="M215.325 210.541L222.115 292.041L231.325 291.541L225.325 214.541L215.325 210.541Z" fill="#3F3D56"/>
<path d="M252.445 405.541C252.445 405.541 198.825 420.041 153.825 415.041L112.175 387.801L110.325 392.541C110.325 392.541 146.445 437.821 173.385 435.181C200.325 432.541 255.325 416.541 255.325 412.541C255.325 408.541 252.445 405.541 252.445 405.541Z" fill="#3F3D56"/>
<path d="M30.201 343.347C36.1612 338.785 35.262 327.599 28.1927 318.363C21.1234 309.127 10.561 305.337 4.60085 309.899C-1.35928 314.461 -0.460113 325.647 6.60918 334.883C13.6785 344.119 24.2409 347.908 30.201 343.347Z" fill="#E4B3BA"/>
<path d="M368.247 538.69C376.111 534.833 377.64 521.822 371.661 509.629C365.682 497.435 354.46 490.676 346.595 494.532C338.73 498.389 337.202 511.4 343.181 523.593C349.16 535.787 360.382 542.546 368.247 538.69Z" fill="#FFB6B6"/>
<path d="M248.615 415.681C254.535 423.131 254.585 434.161 262.445 440.281C265.705 442.821 270.395 444.171 274.405 442.691C278.375 441.231 280.625 437.551 281.075 433.461C281.555 429.111 279.745 424.971 277.145 421.571C274.335 417.901 270.725 414.431 266.815 411.951C263.195 409.651 258.785 408.451 254.605 409.841C250.385 411.241 247.885 414.651 247.785 419.091C247.705 422.191 248.145 425.341 248.375 428.421L249.065 437.821L250.485 457.111C250.625 459.021 253.625 459.041 253.485 457.111L251.265 426.941C251.085 424.551 250.815 422.151 250.785 419.761C250.755 417.821 251.085 415.921 252.485 414.501C254.945 412.011 258.845 411.791 261.985 412.881C265.885 414.231 269.105 417.301 271.955 420.181C274.725 422.991 277.445 426.371 278.045 430.391C278.525 433.591 277.605 437.441 274.695 439.251C271.505 441.231 267.255 440.171 264.425 438.041C260.715 435.251 258.765 430.631 257.155 426.431C255.425 421.911 253.785 417.381 250.745 413.561C249.545 412.051 247.435 414.181 248.625 415.681H248.615Z" fill="#3F3D56"/>
<path d="M247.905 412.551C245.225 415.931 243.615 419.851 242.095 423.851C240.625 427.721 239.135 431.811 236.375 434.981C233.975 437.741 230.355 439.771 226.585 439.201C222.955 438.651 220.775 435.431 220.525 431.931C220.245 428.051 222.065 424.511 224.495 421.591C227.125 418.431 230.325 415.321 233.875 413.211C236.965 411.371 240.715 410.471 244.115 412.061C245.585 412.751 246.845 413.891 247.435 415.441C248.235 417.561 247.835 420.021 247.675 422.221C246.845 433.511 246.015 444.811 245.185 456.101C245.045 458.031 248.045 458.021 248.185 456.101C249.025 444.721 249.855 433.351 250.695 421.971C250.875 419.471 251.165 416.831 250.255 414.431C249.555 412.591 248.275 411.091 246.625 410.031C243.125 407.771 238.675 407.801 234.925 409.351C230.635 411.121 227.025 414.461 223.875 417.791C220.795 421.061 218.125 424.941 217.595 429.501C217.145 433.401 218.375 437.711 221.555 440.201C225.015 442.911 229.685 442.701 233.515 440.931C243.855 436.151 243.655 422.691 250.035 414.671C251.225 413.171 249.115 411.041 247.915 412.551H247.905Z" fill="#3F3D56"/>
<path d="M68.825 280.971C68.825 280.971 46.155 302.451 7.97499 280.971L13.945 352.561C13.945 352.561 14.485 352.731 15.445 353.001C16.135 355.511 18.035 357.581 20.615 358.391C28.925 361.021 44.905 364.601 55.705 357.801C57.955 356.381 59.285 353.871 59.285 351.201V350.991C60.125 350.381 60.925 349.721 61.675 348.971L68.835 280.961L68.825 280.971Z" fill="#3F3D56"/>
<path d="M38.395 291.711C55.1955 291.711 68.815 286.903 68.815 280.971C68.815 275.039 55.1955 270.231 38.395 270.231C21.5945 270.231 7.97499 275.039 7.97499 280.971C7.97499 286.903 21.5945 291.711 38.395 291.711Z" fill="#9AC5D3"/>
<path d="M360.825 468.971C360.825 468.971 338.155 490.451 299.975 468.971L305.945 540.561C305.945 540.561 306.485 540.731 307.445 541.001C308.135 543.511 310.035 545.581 312.615 546.391C320.925 549.021 336.905 552.601 347.705 545.801C349.955 544.381 351.285 541.871 351.285 539.201V538.991C352.125 538.381 352.925 537.721 353.675 536.971L360.835 468.961L360.825 468.971Z" fill="#3F3D56"/>
<path d="M330.395 479.711C347.195 479.711 360.815 474.903 360.815 468.971C360.815 463.039 347.195 458.231 330.395 458.231C313.594 458.231 299.975 463.039 299.975 468.971C299.975 474.903 313.594 479.711 330.395 479.711Z" fill="#9AC5D3"/>
<path d="M172.985 188.161C200.014 188.161 221.925 166.25 221.925 139.221C221.925 112.192 200.014 90.2812 172.985 90.2812C145.956 90.2812 124.045 112.192 124.045 139.221C124.045 166.25 145.956 188.161 172.985 188.161Z" fill="#E4B3BA"/>
<path d="M158.405 77.6112C168.205 75.3812 175.455 64.9812 183.565 66.0812C201.175 68.4612 216.385 82.9812 218.235 85.0712C225.935 93.7812 228.245 102.671 230.895 112.921C233.705 123.771 230.815 139.871 228.045 151.031C223.995 167.361 212.735 170.611 214.115 181.411C215.085 188.971 221.185 191.971 228.045 199.131C241.025 212.691 244.625 228.531 248.305 244.711C257.065 283.251 244.455 322.111 239.445 321.941C238.385 321.901 237.475 319.381 235.645 314.341C230.055 298.901 232.805 294.181 229.315 289.021C223.085 279.791 209.755 288.191 195.135 278.891C183.615 271.561 179.695 258.591 177.415 251.041C176.105 246.701 170.565 228.381 178.685 210.531C186.205 194.001 197.145 193.261 205.135 173.801C206.815 169.701 212.375 159.061 206.535 151.031C203.575 146.961 204.165 170.041 199.745 166.261C188.985 157.081 193.765 119.591 183.745 109.251C178.955 104.301 171.695 102.371 166.025 102.921C152.545 104.221 128.595 117.341 126.485 131.791C123.095 155.041 130.795 165.191 149.565 182.681C151.595 184.571 143.925 183.561 140.705 182.681C124.325 178.221 117.925 157.031 116.655 152.301C112.915 138.421 115.735 126.971 117.925 118.121C120.715 106.801 123.715 94.6212 134.385 86.4712C140.695 81.6512 147.155 80.1812 158.435 77.6112H158.405Z" fill="#2F2E41"/>
</g>
<defs>
<clipPath id="clip0_8_675">
<rect width="374.63" height="497.09" fill="white" transform="translate(0.684998)"/>
</clipPath>
</defs>
</svg>
